<?xml version="1.0" encoding="utf-8"?>
<!-- Generator: Adobe Illustrator 16.0.4, SVG Export Plug-In . SVG Version: 6.00 Build 0)  -->
<!DOCTYPE svg PUBLIC "-//W3C//DTD SVG 1.1//EN" "http://www.w3.org/Graphics/SVG/1.1/DTD/svg11.dtd">
<svg version="1.1" id="Layer_1" xmlns="http://www.w3.org/2000/svg" xmlns:xlink="http://www.w3.org/1999/xlink" x="0px" y="0px"
	 width="2213.008px" height="778.676px" viewBox="0 0 2213.008 778.676" enable-background="new 0 0 2213.008 778.676"
	 xml:space="preserve">
<g transform="translate(22.5000185, 22.5000185) ">
	<polygon fill="none" stroke="#000000" stroke-width="0.9" points="-4.5,-4.5 21.012,-4.5 21.012,4.004 46.524,4.004 46.524,-4.5 
		63.531,-4.5 63.531,4.004 80.539,4.004 80.539,-4.5 97.547,-4.5 97.547,4.004 114.555,4.004 114.555,-4.5 131.563,-4.5 
		131.563,4.004 148.571,4.004 148.571,-4.5 165.578,-4.5 165.578,4.004 182.586,4.004 182.586,-4.5 199.594,-4.5 199.594,4.004 
		216.603,4.004 216.603,-4.5 233.611,-4.5 233.611,4.004 250.618,4.004 250.618,-4.5 267.626,-4.5 267.626,4.004 284.634,4.004 
		284.634,-4.5 301.642,-4.5 301.642,4.004 318.65,4.004 318.65,-4.5 335.657,-4.5 335.657,4.004 352.665,4.004 352.665,-4.5 
		369.673,-4.5 369.673,4.004 386.681,4.004 386.681,-4.5 403.689,-4.5 403.689,4.004 420.697,4.004 420.697,-4.5 437.704,-4.5 
		437.704,4.004 454.712,4.004 454.712,-4.5 471.72,-4.5 471.72,4.004 488.728,4.004 488.728,-4.5 505.736,-4.5 505.736,4.004 
		522.743,4.004 522.743,-4.5 539.752,-4.5 539.752,4.004 556.76,4.004 556.76,-4.5 573.768,-4.5 573.768,4.004 590.776,4.004 
		590.776,-4.5 607.783,-4.5 607.783,4.004 624.791,4.004 624.791,-4.5 641.799,-4.5 641.799,4.004 658.807,4.004 658.807,-4.5 
		675.815,-4.5 675.815,4.004 692.823,4.004 692.823,-4.5 709.83,-4.5 709.83,4.004 726.838,4.004 726.838,-4.5 743.846,-4.5 
		743.846,4.004 760.854,4.004 760.854,-4.5 777.862,-4.5 777.862,4.004 794.869,4.004 794.869,-4.5 811.877,-4.5 811.877,4.004 
		837.39,4.004 837.39,-4.5 862.902,-4.5 862.902,23.847 854.398,23.847 854.398,52.193 862.902,52.193 862.902,69.201 
		854.398,69.201 854.398,86.208 862.902,86.208 862.902,103.217 854.398,103.217 854.398,120.225 862.902,120.225 862.902,137.232 
		854.398,137.232 854.398,154.24 862.902,154.24 862.902,171.248 854.398,171.248 854.398,188.256 862.902,188.256 862.902,205.264 
		854.398,205.264 854.398,222.271 862.902,222.271 862.902,239.279 854.398,239.279 854.398,267.626 862.902,267.626 
		862.902,295.973 837.39,295.973 837.39,287.469 811.877,287.469 811.877,295.973 794.869,295.973 794.869,287.469 777.862,287.469 
		777.862,295.973 760.854,295.973 760.854,287.469 743.846,287.469 743.846,295.973 726.838,295.973 726.838,287.469 
		709.83,287.469 709.83,295.973 692.823,295.973 692.823,287.469 675.815,287.469 675.815,295.973 658.807,295.973 658.807,287.469 
		641.799,287.469 641.799,295.973 624.791,295.973 624.791,287.469 607.783,287.469 607.783,295.973 590.776,295.973 
		590.776,287.469 573.768,287.469 573.768,295.973 556.76,295.973 556.76,287.469 539.752,287.469 539.752,295.973 522.743,295.973 
		522.743,287.469 505.736,287.469 505.736,295.973 488.728,295.973 488.728,287.469 471.72,287.469 471.72,295.973 454.712,295.973 
		454.712,287.469 437.704,287.469 437.704,295.973 420.697,295.973 420.697,287.469 403.689,287.469 403.689,295.973 
		386.681,295.973 386.681,287.469 369.673,287.469 369.673,295.973 352.665,295.973 352.665,287.469 335.657,287.469 
		335.657,295.973 318.65,295.973 318.65,287.469 301.642,287.469 301.642,295.973 284.634,295.973 284.634,287.469 267.626,287.469 
		267.626,295.973 250.618,295.973 250.618,287.469 233.611,287.469 233.611,295.973 216.603,295.973 216.603,287.469 
		199.594,287.469 199.594,295.973 182.586,295.973 182.586,287.469 165.578,287.469 165.578,295.973 148.571,295.973 
		148.571,287.469 131.563,287.469 131.563,295.973 114.555,295.973 114.555,287.469 97.547,287.469 97.547,295.973 80.539,295.973 
		80.539,287.469 63.531,287.469 63.531,295.973 46.524,295.973 46.524,287.469 21.012,287.469 21.012,295.973 -4.5,295.973 
		-4.5,267.626 4.004,267.626 4.004,239.279 -4.5,239.279 -4.5,222.271 4.004,222.271 4.004,205.264 -4.5,205.264 -4.5,188.256 
		4.004,188.256 4.004,171.248 -4.5,171.248 -4.5,154.24 4.004,154.24 4.004,137.232 -4.5,137.232 -4.5,120.225 4.004,120.225 
		4.004,103.217 -4.5,103.217 -4.5,86.208 4.004,86.208 4.004,69.201 -4.5,69.201 -4.5,52.193 4.004,52.193 4.004,23.847 
		-4.5,23.847 	"/>
</g>
<g transform="translate(1106.7528785000002, 22.5000185) ">
	<polygon fill="none" stroke="#000000" stroke-width="0.9" points="-221.351,-4.5 -195.84,-4.5 -195.84,4.004 -170.328,4.004 
		-170.328,-4.5 -153.32,-4.5 -153.32,4.004 -136.312,4.004 -136.312,-4.5 -119.304,-4.5 -119.304,4.004 -102.297,4.004 
		-102.297,-4.5 -85.289,-4.5 -85.289,4.004 -68.281,4.004 -68.281,-4.5 -51.273,-4.5 -51.273,4.004 -34.264,4.004 -34.264,-4.5 
		-17.257,-4.5 -17.257,4.004 -0.249,4.004 -0.249,-4.5 16.759,-4.5 16.759,4.004 33.767,4.004 33.767,-4.5 50.775,-4.5 
		50.775,4.004 67.782,4.004 67.782,-4.5 84.79,-4.5 84.79,4.004 101.798,4.004 101.798,-4.5 118.806,-4.5 118.806,4.004 
		135.814,4.004 135.814,-4.5 152.822,-4.5 152.822,4.004 169.829,4.004 169.829,-4.5 186.837,-4.5 186.837,4.004 203.845,4.004 
		203.845,-4.5 220.853,-4.5 220.853,4.004 237.861,4.004 237.861,-4.5 254.868,-4.5 254.868,4.004 271.877,4.004 271.877,-4.5 
		288.885,-4.5 288.885,4.004 305.893,4.004 305.893,-4.5 322.901,-4.5 322.901,4.004 339.908,4.004 339.908,-4.5 356.916,-4.5 
		356.916,4.004 373.924,4.004 373.924,-4.5 390.932,-4.5 390.932,4.004 407.94,4.004 407.94,-4.5 424.948,-4.5 424.948,4.004 
		441.955,4.004 441.955,-4.5 458.963,-4.5 458.963,4.004 475.971,4.004 475.971,-4.5 492.98,-4.5 492.98,4.004 509.988,4.004 
		509.988,-4.5 526.995,-4.5 526.995,4.004 544.003,4.004 544.003,-4.5 561.011,-4.5 561.011,4.004 578.019,4.004 578.019,-4.5 
		595.027,-4.5 595.027,4.004 620.538,4.004 620.538,-4.5 646.05,-4.5 646.05,23.847 637.546,23.847 637.546,52.193 646.05,52.193 
		646.05,69.201 637.546,69.201 637.546,86.208 646.05,86.208 646.05,103.217 637.546,103.217 637.546,120.225 646.05,120.225 
		646.05,137.232 637.546,137.232 637.546,154.24 646.05,154.24 646.05,171.248 637.546,171.248 637.546,188.256 646.05,188.256 
		646.05,205.264 637.546,205.264 637.546,222.271 646.05,222.271 646.05,239.279 637.546,239.279 637.546,267.626 646.05,267.626 
		646.05,295.973 620.538,295.973 620.538,287.469 595.027,287.469 595.027,295.973 578.019,295.973 578.019,287.469 
		561.011,287.469 561.011,295.973 544.003,295.973 544.003,287.469 526.995,287.469 526.995,295.973 509.988,295.973 
		509.988,287.469 492.98,287.469 492.98,295.973 475.971,295.973 475.971,287.469 458.963,287.469 458.963,295.973 441.955,295.973 
		441.955,287.469 424.948,287.469 424.948,295.973 407.94,295.973 407.94,287.469 390.932,287.469 390.932,295.973 373.924,295.973 
		373.924,287.469 356.916,287.469 356.916,295.973 339.908,295.973 339.908,287.469 322.901,287.469 322.901,295.973 
		305.893,295.973 305.893,287.469 288.885,287.469 288.885,295.973 271.877,295.973 271.877,287.469 254.868,287.469 
		254.868,295.973 237.861,295.973 237.861,287.469 220.853,287.469 220.853,295.973 203.845,295.973 203.845,287.469 
		186.837,287.469 186.837,295.973 169.829,295.973 169.829,287.469 152.822,287.469 152.822,295.973 135.814,295.973 
		135.814,287.469 118.806,287.469 118.806,295.973 101.798,295.973 101.798,287.469 84.79,287.469 84.79,295.973 67.782,295.973 
		67.782,287.469 50.775,287.469 50.775,295.973 33.767,295.973 33.767,287.469 16.759,287.469 16.759,295.973 -0.249,295.973 
		-0.249,287.469 -17.257,287.469 -17.257,295.973 -34.264,295.973 -34.264,287.469 -51.273,287.469 -51.273,295.973 
		-68.281,295.973 -68.281,287.469 -85.289,287.469 -85.289,295.973 -102.297,295.973 -102.297,287.469 -119.304,287.469 
		-119.304,295.973 -136.312,295.973 -136.312,287.469 -153.32,287.469 -153.32,295.973 -170.328,295.973 -170.328,287.469 
		-195.84,287.469 -195.84,295.973 -221.351,295.973 -221.351,267.626 -212.847,267.626 -212.847,239.279 -221.351,239.279 
		-221.351,222.271 -212.847,222.271 -212.847,205.264 -221.351,205.264 -221.351,188.256 -212.847,188.256 -212.847,171.248 
		-221.351,171.248 -221.351,154.24 -212.847,154.24 -212.847,137.232 -221.351,137.232 -221.351,120.225 -212.847,120.225 
		-212.847,103.217 -221.351,103.217 -221.351,86.208 -212.847,86.208 -212.847,69.201 -221.351,69.201 -221.351,52.193 
		-212.847,52.193 -212.847,23.847 -221.351,23.847 	"/>
</g>
<g transform="translate(2191.0057385, 22.5000185) ">
	<polygon fill="none" stroke="#000000" stroke-width="0.9" points="-429.699,-4.5 -416.943,-4.5 -416.943,4.004 -395.683,4.004 
		-395.683,-4.5 -378.676,-4.5 -378.676,4.004 -361.668,4.004 -361.668,-4.5 -344.66,-4.5 -344.66,4.004 -327.652,4.004 
		-327.652,-4.5 -310.644,-4.5 -310.644,4.004 -293.636,4.004 -293.636,-4.5 -276.628,-4.5 -276.628,4.004 -259.62,4.004 
		-259.62,-4.5 -242.612,-4.5 -242.612,4.004 -225.604,4.004 -225.604,-4.5 -208.596,-4.5 -208.596,4.004 -191.589,4.004 
		-191.589,-4.5 -174.581,-4.5 -174.581,4.004 -157.573,4.004 -157.573,-4.5 -140.565,-4.5 -140.565,4.004 -123.557,4.004 
		-123.557,-4.5 -106.55,-4.5 -106.55,4.004 -89.542,4.004 -89.542,-4.5 -72.534,-4.5 -72.534,4.004 -55.525,4.004 -55.525,-4.5 
		-38.517,-4.5 -38.517,4.004 -17.258,4.004 -17.258,-4.5 -4.502,-4.5 -4.502,23.847 4.002,23.847 4.002,52.193 -4.502,52.193 
		-4.502,69.201 4.002,69.201 4.002,86.208 -4.502,86.208 -4.502,103.217 4.002,103.217 4.002,120.225 -4.502,120.225 
		-4.502,137.232 4.002,137.232 4.002,154.24 -4.502,154.24 -4.502,171.248 4.002,171.248 4.002,188.256 -4.502,188.256 
		-4.502,205.264 4.002,205.264 4.002,222.271 -4.502,222.271 -4.502,239.279 4.002,239.279 4.002,267.626 -4.502,267.626 
		-4.502,295.973 -17.258,295.973 -17.258,287.469 -38.517,287.469 -38.517,295.973 -55.525,295.973 -55.525,287.469 
		-72.534,287.469 -72.534,295.973 -89.542,295.973 -89.542,287.469 -106.55,287.469 -106.55,295.973 -123.557,295.973 
		-123.557,287.469 -140.565,287.469 -140.565,295.973 -157.573,295.973 -157.573,287.469 -174.581,287.469 -174.581,295.973 
		-191.589,295.973 -191.589,287.469 -208.596,287.469 -208.596,295.973 -225.604,295.973 -225.604,287.469 -242.612,287.469 
		-242.612,295.973 -259.62,295.973 -259.62,287.469 -276.628,287.469 -276.628,295.973 -293.636,295.973 -293.636,287.469 
		-310.644,287.469 -310.644,295.973 -327.652,295.973 -327.652,287.469 -344.66,287.469 -344.66,295.973 -361.668,295.973 
		-361.668,287.469 -378.676,287.469 -378.676,295.973 -395.683,295.973 -395.683,287.469 -416.943,287.469 -416.943,295.973 
		-429.699,295.973 -429.699,267.626 -438.203,267.626 -438.203,239.279 -429.699,239.279 -429.699,222.271 -438.203,222.271 
		-438.203,205.264 -429.699,205.264 -429.699,188.256 -438.203,188.256 -438.203,171.248 -429.699,171.248 -429.699,154.24 
		-438.203,154.24 -438.203,137.232 -429.699,137.232 -429.699,120.225 -438.203,120.225 -438.203,103.217 -429.699,103.217 
		-429.699,86.208 -438.203,86.208 -438.203,69.201 -429.699,69.201 -429.699,52.193 -438.203,52.193 -438.203,23.847 
		-429.699,23.847 	"/>
</g>
<g transform="translate(2191.0057385, 398.0908785) ">
	<polygon fill="none" stroke="#000000" stroke-width="0.9" points="-429.699,-79.618 -416.943,-79.618 -416.943,-71.114 
		-395.683,-71.114 -395.683,-79.618 -378.676,-79.618 -378.676,-71.114 -361.668,-71.114 -361.668,-79.618 -344.66,-79.618 
		-344.66,-71.114 -327.652,-71.114 -327.652,-79.618 -310.644,-79.618 -310.644,-71.114 -293.636,-71.114 -293.636,-79.618 
		-276.628,-79.618 -276.628,-71.114 -259.62,-71.114 -259.62,-79.618 -242.612,-79.618 -242.612,-71.114 -225.604,-71.114 
		-225.604,-79.618 -208.596,-79.618 -208.596,-71.114 -191.589,-71.114 -191.589,-79.618 -174.581,-79.618 -174.581,-71.114 
		-157.573,-71.114 -157.573,-79.618 -140.565,-79.618 -140.565,-71.114 -123.557,-71.114 -123.557,-79.618 -106.55,-79.618 
		-106.55,-71.114 -89.542,-71.114 -89.542,-79.618 -72.534,-79.618 -72.534,-71.114 -55.525,-71.114 -55.525,-79.618 
		-38.517,-79.618 -38.517,-71.114 -17.258,-71.114 -17.258,-79.618 -4.502,-79.618 -4.502,-51.272 4.002,-51.272 4.002,-22.925 
		-4.502,-22.925 -4.502,-5.918 4.002,-5.918 4.002,11.09 -4.502,11.09 -4.502,28.099 4.002,28.099 4.002,45.107 -4.502,45.107 
		-4.502,62.115 4.002,62.115 4.002,79.122 -4.502,79.122 -4.502,96.13 4.002,96.13 4.002,113.138 -4.502,113.138 -4.502,130.146 
		4.002,130.146 4.002,147.154 -4.502,147.154 -4.502,164.162 4.002,164.162 4.002,192.507 -4.502,192.507 -4.502,220.855 
		-17.258,220.855 -17.258,212.351 -38.517,212.351 -38.517,220.855 -55.525,220.855 -55.525,212.351 -72.534,212.351 
		-72.534,220.855 -89.542,220.855 -89.542,212.351 -106.55,212.351 -106.55,220.855 -123.557,220.855 -123.557,212.351 
		-140.565,212.351 -140.565,220.855 -157.573,220.855 -157.573,212.351 -174.581,212.351 -174.581,220.855 -191.589,220.855 
		-191.589,212.351 -208.596,212.351 -208.596,220.855 -225.604,220.855 -225.604,212.351 -242.612,212.351 -242.612,220.855 
		-259.62,220.855 -259.62,212.351 -276.628,212.351 -276.628,220.855 -293.636,220.855 -293.636,212.351 -310.644,212.351 
		-310.644,220.855 -327.652,220.855 -327.652,212.351 -344.66,212.351 -344.66,220.855 -361.668,220.855 -361.668,212.351 
		-378.676,212.351 -378.676,220.855 -395.683,220.855 -395.683,212.351 -416.943,212.351 -416.943,220.855 -429.699,220.855 
		-429.699,192.507 -438.203,192.507 -438.203,164.162 -429.699,164.162 -429.699,147.154 -438.203,147.154 -438.203,130.146 
		-429.699,130.146 -429.699,113.138 -438.203,113.138 -438.203,96.13 -429.699,96.13 -429.699,79.122 -438.203,79.122 
		-438.203,62.115 -429.699,62.115 -429.699,45.107 -438.203,45.107 -438.203,28.099 -429.699,28.099 -429.699,11.09 -438.203,11.09 
		-438.203,-5.918 -429.699,-5.918 -429.699,-22.925 -438.203,-22.925 -438.203,-51.272 -429.699,-51.272 	"/>
</g>
<g transform="translate(22.5000185, 398.0908785) ">
	<polygon fill="none" stroke="#000000" stroke-width="0.9" points="4.004,-71.114 21.012,-71.114 21.012,-79.618 46.524,-79.618 
		46.524,-71.114 63.531,-71.114 63.531,-79.618 80.539,-79.618 80.539,-71.114 97.547,-71.114 97.547,-79.618 114.555,-79.618 
		114.555,-71.114 131.563,-71.114 131.563,-79.618 148.571,-79.618 148.571,-71.114 165.578,-71.114 165.578,-79.618 
		182.586,-79.618 182.586,-71.114 199.594,-71.114 199.594,-79.618 216.603,-79.618 216.603,-71.114 233.611,-71.114 
		233.611,-79.618 250.618,-79.618 250.618,-71.114 267.626,-71.114 267.626,-79.618 284.634,-79.618 284.634,-71.114 
		301.642,-71.114 301.642,-79.618 318.65,-79.618 318.65,-71.114 335.657,-71.114 335.657,-79.618 352.665,-79.618 352.665,-71.114 
		369.673,-71.114 369.673,-79.618 386.681,-79.618 386.681,-71.114 403.689,-71.114 403.689,-79.618 420.697,-79.618 
		420.697,-71.114 437.704,-71.114 437.704,-79.618 454.712,-79.618 454.712,-71.114 471.72,-71.114 471.72,-79.618 488.728,-79.618 
		488.728,-71.114 505.736,-71.114 505.736,-79.618 522.743,-79.618 522.743,-71.114 539.752,-71.114 539.752,-79.618 
		556.76,-79.618 556.76,-71.114 573.768,-71.114 573.768,-79.618 590.776,-79.618 590.776,-71.114 607.783,-71.114 607.783,-79.618 
		624.791,-79.618 624.791,-71.114 641.799,-71.114 641.799,-79.618 658.807,-79.618 658.807,-71.114 675.815,-71.114 
		675.815,-79.618 692.823,-79.618 692.823,-71.114 709.83,-71.114 709.83,-79.618 726.838,-79.618 726.838,-71.114 743.846,-71.114 
		743.846,-79.618 760.854,-79.618 760.854,-71.114 777.862,-71.114 777.862,-79.618 794.869,-79.618 794.869,-71.114 
		811.877,-71.114 811.877,-79.618 837.39,-79.618 837.39,-71.114 854.398,-71.114 854.398,-58.358 862.902,-58.358 862.902,-37.099 
		854.398,-37.099 854.398,-20.091 862.902,-20.091 862.902,-3.083 854.398,-3.083 854.398,13.925 862.902,13.925 862.902,30.933 
		854.398,30.933 854.398,47.941 862.902,47.941 862.902,64.949 854.398,64.949 854.398,81.956 862.902,81.956 862.902,98.964 
		854.398,98.964 854.398,115.972 862.902,115.972 862.902,132.98 854.398,132.98 854.398,149.988 862.902,149.988 862.902,166.996 
		854.398,166.996 854.398,184.003 862.902,184.003 862.902,201.011 854.398,201.011 854.398,218.019 862.902,218.019 
		862.902,235.027 854.398,235.027 854.398,252.035 862.902,252.035 862.902,269.042 854.398,269.042 854.398,286.05 862.902,286.05 
		862.902,303.058 854.398,303.058 854.398,320.066 862.902,320.066 862.902,341.326 854.398,341.326 854.398,354.081 
		837.39,354.081 837.39,362.585 811.877,362.585 811.877,354.081 794.869,354.081 794.869,362.585 777.862,362.585 777.862,354.081 
		760.854,354.081 760.854,362.585 743.846,362.585 743.846,354.081 726.838,354.081 726.838,362.585 709.83,362.585 709.83,354.081 
		692.823,354.081 692.823,362.585 675.815,362.585 675.815,354.081 658.807,354.081 658.807,362.585 641.799,362.585 
		641.799,354.081 624.791,354.081 624.791,362.585 607.783,362.585 607.783,354.081 590.776,354.081 590.776,362.585 
		573.768,362.585 573.768,354.081 556.76,354.081 556.76,362.585 539.752,362.585 539.752,354.081 522.743,354.081 522.743,362.585 
		505.736,362.585 505.736,354.081 488.728,354.081 488.728,362.585 471.72,362.585 471.72,354.081 454.712,354.081 454.712,362.585 
		437.704,362.585 437.704,354.081 420.697,354.081 420.697,362.585 403.689,362.585 403.689,354.081 386.681,354.081 
		386.681,362.585 369.673,362.585 369.673,354.081 352.665,354.081 352.665,362.585 335.657,362.585 335.657,354.081 
		318.65,354.081 318.65,362.585 301.642,362.585 301.642,354.081 284.634,354.081 284.634,362.585 267.626,362.585 267.626,354.081 
		250.618,354.081 250.618,362.585 233.611,362.585 233.611,354.081 216.603,354.081 216.603,362.585 199.594,362.585 
		199.594,354.081 182.586,354.081 182.586,362.585 165.578,362.585 165.578,354.081 148.571,354.081 148.571,362.585 
		131.563,362.585 131.563,354.081 114.555,354.081 114.555,362.585 97.547,362.585 97.547,354.081 80.539,354.081 80.539,362.585 
		63.531,362.585 63.531,354.081 46.524,354.081 46.524,362.585 21.012,362.585 21.012,354.081 4.004,354.081 4.004,341.326 
		-4.5,341.326 -4.5,320.066 4.004,320.066 4.004,303.058 -4.5,303.058 -4.5,286.05 4.004,286.05 4.004,269.042 -4.5,269.042 
		-4.5,252.035 4.004,252.035 4.004,235.027 -4.5,235.027 -4.5,218.019 4.004,218.019 4.004,201.011 -4.5,201.011 -4.5,184.003 
		4.004,184.003 4.004,166.996 -4.5,166.996 -4.5,149.988 4.004,149.988 4.004,132.98 -4.5,132.98 -4.5,115.972 4.004,115.972 
		4.004,98.964 -4.5,98.964 -4.5,81.956 4.004,81.956 4.004,64.949 -4.5,64.949 -4.5,47.941 4.004,47.941 4.004,30.933 -4.5,30.933 
		-4.5,13.925 4.004,13.925 4.004,-3.083 -4.5,-3.083 -4.5,-20.091 4.004,-20.091 4.004,-37.099 -4.5,-37.099 -4.5,-58.358 
		4.004,-58.358 	"/>
</g>
<g transform="translate(1106.7528785000002, 398.0908785) ">
	<polygon fill="none" stroke="#000000" stroke-width="0.9" points="-212.847,-71.114 -195.84,-71.114 -195.84,-79.618 
		-170.328,-79.618 -170.328,-71.114 -153.32,-71.114 -153.32,-79.618 -136.312,-79.618 -136.312,-71.114 -119.304,-71.114 
		-119.304,-79.618 -102.297,-79.618 -102.297,-71.114 -85.289,-71.114 -85.289,-79.618 -68.281,-79.618 -68.281,-71.114 
		-51.273,-71.114 -51.273,-79.618 -34.264,-79.618 -34.264,-71.114 -17.257,-71.114 -17.257,-79.618 -0.249,-79.618 -0.249,-71.114 
		16.759,-71.114 16.759,-79.618 33.767,-79.618 33.767,-71.114 50.775,-71.114 50.775,-79.618 67.782,-79.618 67.782,-71.114 
		84.79,-71.114 84.79,-79.618 101.798,-79.618 101.798,-71.114 118.806,-71.114 118.806,-79.618 135.814,-79.618 135.814,-71.114 
		152.822,-71.114 152.822,-79.618 169.829,-79.618 169.829,-71.114 186.837,-71.114 186.837,-79.618 203.845,-79.618 
		203.845,-71.114 220.853,-71.114 220.853,-79.618 237.861,-79.618 237.861,-71.114 254.868,-71.114 254.868,-79.618 
		271.877,-79.618 271.877,-71.114 288.885,-71.114 288.885,-79.618 305.893,-79.618 305.893,-71.114 322.901,-71.114 
		322.901,-79.618 339.908,-79.618 339.908,-71.114 356.916,-71.114 356.916,-79.618 373.924,-79.618 373.924,-71.114 
		390.932,-71.114 390.932,-79.618 407.94,-79.618 407.94,-71.114 424.948,-71.114 424.948,-79.618 441.955,-79.618 441.955,-71.114 
		458.963,-71.114 458.963,-79.618 475.971,-79.618 475.971,-71.114 492.98,-71.114 492.98,-79.618 509.988,-79.618 509.988,-71.114 
		526.995,-71.114 526.995,-79.618 544.003,-79.618 544.003,-71.114 561.011,-71.114 561.011,-79.618 578.019,-79.618 
		578.019,-71.114 595.027,-71.114 595.027,-79.618 620.538,-79.618 620.538,-71.114 637.546,-71.114 637.546,-58.358 
		646.05,-58.358 646.05,-37.099 637.546,-37.099 637.546,-20.091 646.05,-20.091 646.05,-3.083 637.546,-3.083 637.546,13.925 
		646.05,13.925 646.05,30.933 637.546,30.933 637.546,47.941 646.05,47.941 646.05,64.949 637.546,64.949 637.546,81.956 
		646.05,81.956 646.05,98.964 637.546,98.964 637.546,115.972 646.05,115.972 646.05,132.98 637.546,132.98 637.546,149.988 
		646.05,149.988 646.05,166.996 637.546,166.996 637.546,184.003 646.05,184.003 646.05,201.011 637.546,201.011 637.546,218.019 
		646.05,218.019 646.05,235.027 637.546,235.027 637.546,252.035 646.05,252.035 646.05,269.042 637.546,269.042 637.546,286.05 
		646.05,286.05 646.05,303.058 637.546,303.058 637.546,320.066 646.05,320.066 646.05,341.326 637.546,341.326 637.546,354.081 
		620.538,354.081 620.538,362.585 595.027,362.585 595.027,354.081 578.019,354.081 578.019,362.585 561.011,362.585 
		561.011,354.081 544.003,354.081 544.003,362.585 526.995,362.585 526.995,354.081 509.988,354.081 509.988,362.585 
		492.98,362.585 492.98,354.081 475.971,354.081 475.971,362.585 458.963,362.585 458.963,354.081 441.955,354.081 441.955,362.585 
		424.948,362.585 424.948,354.081 407.94,354.081 407.94,362.585 390.932,362.585 390.932,354.081 373.924,354.081 373.924,362.585 
		356.916,362.585 356.916,354.081 339.908,354.081 339.908,362.585 322.901,362.585 322.901,354.081 305.893,354.081 
		305.893,362.585 288.885,362.585 288.885,354.081 271.877,354.081 271.877,362.585 254.868,362.585 254.868,354.081 
		237.861,354.081 237.861,362.585 220.853,362.585 220.853,354.081 203.845,354.081 203.845,362.585 186.837,362.585 
		186.837,354.081 169.829,354.081 169.829,362.585 152.822,362.585 152.822,354.081 135.814,354.081 135.814,362.585 
		118.806,362.585 118.806,354.081 101.798,354.081 101.798,362.585 84.79,362.585 84.79,354.081 67.782,354.081 67.782,362.585 
		50.775,362.585 50.775,354.081 33.767,354.081 33.767,362.585 16.759,362.585 16.759,354.081 -0.249,354.081 -0.249,362.585 
		-17.257,362.585 -17.257,354.081 -34.264,354.081 -34.264,362.585 -51.273,362.585 -51.273,354.081 -68.281,354.081 
		-68.281,362.585 -85.289,362.585 -85.289,354.081 -102.297,354.081 -102.297,362.585 -119.304,362.585 -119.304,354.081 
		-136.312,354.081 -136.312,362.585 -153.32,362.585 -153.32,354.081 -170.328,354.081 -170.328,362.585 -195.84,362.585 
		-195.84,354.081 -212.847,354.081 -212.847,341.326 -221.351,341.326 -221.351,320.066 -212.847,320.066 -212.847,303.058 
		-221.351,303.058 -221.351,286.05 -212.847,286.05 -212.847,269.042 -221.351,269.042 -221.351,252.035 -212.847,252.035 
		-212.847,235.027 -221.351,235.027 -221.351,218.019 -212.847,218.019 -212.847,201.011 -221.351,201.011 -221.351,184.003 
		-212.847,184.003 -212.847,166.996 -221.351,166.996 -221.351,149.988 -212.847,149.988 -212.847,132.98 -221.351,132.98 
		-221.351,115.972 -212.847,115.972 -212.847,98.964 -221.351,98.964 -221.351,81.956 -212.847,81.956 -212.847,64.949 
		-221.351,64.949 -221.351,47.941 -212.847,47.941 -212.847,30.933 -221.351,30.933 -221.351,13.925 -212.847,13.925 
		-212.847,-3.083 -221.351,-3.083 -221.351,-20.091 -212.847,-20.091 -212.847,-37.099 -221.351,-37.099 -221.351,-58.358 
		-212.847,-58.358 	"/>
</g>
<circle fill="#FFFFFF" stroke="#000000" stroke-miterlimit="10" cx="650.127" cy="539.575" r="43.937"/>
<circle fill="#FFFFFF" stroke="#000000" stroke-miterlimit="10" cx="407.764" cy="168.236" r="14.173"/>
<circle fill="#FFFFFF" stroke="#000000" stroke-miterlimit="10" cx="242.981" cy="168.236" r="14.173"/>
</svg>
