<?xml version="1.0" encoding="utf-8"?>
<!-- Generator: Adobe Illustrator 16.0.4, SVG Export Plug-In . SVG Version: 6.00 Build 0)  -->
<!DOCTYPE svg PUBLIC "-//W3C//DTD SVG 1.1//EN" "http://www.w3.org/Graphics/SVG/1.1/DTD/svg11.dtd">
<svg version="1.1" id="Ebene_1" xmlns="http://www.w3.org/2000/svg" xmlns:xlink="http://www.w3.org/1999/xlink" x="0px" y="0px"
	 width="1417.32px" height="1417.32px" viewBox="0 0 1417.32 1417.32" enable-background="new 0 0 1417.32 1417.32"
	 xml:space="preserve">
<polygon fill="#FFFFFF" stroke="#000000" stroke-miterlimit="10" points="782.363,62.362 782.363,5.669 697.323,5.669 
	697.323,62.362 720.001,62.362 720.001,70.866 697.323,70.866 697.323,204.094 720.001,204.094 720.001,212.598 697.323,212.598 
	697.323,345.827 720.001,345.827 720.001,354.331 697.323,354.331 697.323,487.559 720.001,487.559 720.001,496.062 
	697.323,496.062 697.323,666.142 782.363,666.142 782.363,496.062 759.686,496.062 759.686,487.559 782.363,487.559 
	782.363,354.331 759.686,354.331 759.686,345.827 782.363,345.827 782.363,212.598 759.686,212.598 759.686,204.094 
	782.363,204.094 782.363,70.866 759.686,70.866 759.686,62.362 "/>
<polygon fill="#FFFFFF" stroke="#000000" stroke-miterlimit="10" points="873.072,62.362 873.072,5.669 788.032,5.669 
	788.032,62.362 810.712,62.362 810.712,70.866 788.032,70.866 788.032,204.094 810.712,204.094 810.712,212.598 788.032,212.598 
	788.032,345.827 810.712,345.827 810.712,354.331 788.032,354.331 788.032,487.559 810.712,487.559 810.712,496.062 
	788.032,496.062 788.032,666.142 873.072,666.142 873.072,496.062 850.395,496.062 850.395,487.559 873.072,487.559 
	873.072,354.331 850.395,354.331 850.395,345.827 873.072,345.827 873.072,212.598 850.395,212.598 850.395,204.094 
	873.072,204.094 873.072,70.866 850.395,70.866 850.395,62.362 "/>
<polygon fill="#FFFFFF" stroke="#000000" stroke-miterlimit="10" points="963.78,62.362 963.78,5.669 878.741,5.669 878.741,62.362 
	901.42,62.362 901.42,70.866 878.741,70.866 878.741,204.094 901.42,204.094 901.42,212.598 878.741,212.598 878.741,345.827 
	901.42,345.827 901.42,354.331 878.741,354.331 878.741,487.559 901.42,487.559 901.42,496.062 878.741,496.062 878.741,666.142 
	963.78,666.142 963.78,496.062 941.104,496.062 941.104,487.559 963.78,487.559 963.78,354.331 941.104,354.331 941.104,345.827 
	963.78,345.827 963.78,212.598 941.104,212.598 941.104,204.094 963.78,204.094 963.78,70.866 941.104,70.866 941.104,62.362 "/>
<path fill="#FFFFFF" stroke="#000000" stroke-miterlimit="10" d="M295.936,268.051l19.843-34.369l16.206,9.357
	c8.901-20.639,13.842-43.387,13.842-67.292c0-87.219-65.655-159.09-150.236-168.92v18.684h-39.685V6.828
	C71.324,16.658,5.669,88.529,5.669,175.748c0,23.905,4.941,46.653,13.844,67.292l16.205-9.357l19.844,34.368l-16.188,9.344
	c31.01,41.537,80.55,68.431,136.373,68.431s105.363-26.894,136.373-68.432L295.936,268.051z"/>
<text transform="matrix(1 0 0 1 338.4109 654.3232)" font-family="'MyriadPro-Regular'" font-size="12">3mm</text>
<text transform="matrix(1 0 0 1 317.8201 668.7227)" font-family="'MyriadPro-Regular'" font-size="12">Materialdicke</text>
<circle fill="#FFFFFF" stroke="#000000" stroke-miterlimit="10" cx="175.748" cy="175.748" r="136.063"/>
<path fill="#FFFFFF" stroke="#000000" stroke-miterlimit="10" d="M295.936,613.877l19.843-34.369l16.206,9.357
	c8.901-20.641,13.842-43.389,13.842-67.292c0-87.221-65.655-159.09-150.236-168.92v18.684h-39.685v-18.684
	C71.324,362.483,5.67,434.355,5.67,521.573c0,23.905,4.941,46.651,13.844,67.292l16.207-9.357l19.842,34.368l-16.188,9.344
	c31.012,41.537,80.55,68.434,136.373,68.434s105.363-26.896,136.373-68.434L295.936,613.877z"/>
<circle fill="#FFFFFF" stroke="#000000" stroke-miterlimit="10" cx="175.748" cy="521.574" r="73.7"/>
<path fill="#FFFFFF" stroke="#000000" stroke-miterlimit="10" d="M641.763,268.052l19.844-34.369l16.205,9.357
	c8.901-20.639,13.841-43.387,13.841-67.292c0-87.219-65.654-159.09-150.236-168.92v18.684h-39.685V6.829
	c-84.582,9.83-150.236,81.702-150.236,168.92c0,23.905,4.941,46.653,13.844,67.292l16.207-9.357l19.842,34.368l-16.188,9.344
	c31.012,41.537,80.552,68.431,136.373,68.431c55.823,0,105.363-26.894,136.373-68.432L641.763,268.052z"/>
<circle fill="#FFFFFF" stroke="#000000" stroke-miterlimit="10" cx="521.574" cy="175.749" r="136.063"/>
<path fill="#FFFFFF" stroke="#000000" stroke-miterlimit="10" d="M641.763,613.878l19.844-34.369l16.205,9.357
	c8.901-20.641,13.841-43.39,13.841-67.292c0-87.219-65.654-159.09-150.236-168.92v18.684h-39.685v-18.684
	c-84.582,9.83-150.236,81.704-150.236,168.92c0,23.902,4.941,46.651,13.844,67.292l16.207-9.356l19.842,34.368l-16.188,9.344
	c31.012,41.537,80.552,68.434,136.373,68.434c55.823,0,105.363-26.896,136.373-68.434L641.763,613.878z"/>
<circle fill="#FFFFFF" stroke="#000000" stroke-miterlimit="10" cx="521.575" cy="521.575" r="43.937"/>
</svg>
