<?xml version="1.0" encoding="utf-8"?>
<!-- Generator: Adobe Illustrator 16.0.4, SVG Export Plug-In . SVG Version: 6.00 Build 0)  -->
<!DOCTYPE svg PUBLIC "-//W3C//DTD SVG 1.1//EN" "http://www.w3.org/Graphics/SVG/1.1/DTD/svg11.dtd">
<svg version="1.1" id="Ebene_1" xmlns="http://www.w3.org/2000/svg" xmlns:xlink="http://www.w3.org/1999/xlink" x="0px" y="0px"
	 width="1226.551px" height="546.236px" viewBox="0 0 1226.551 546.236" enable-background="new 0 0 1226.551 546.236"
	 xml:space="preserve">
<g transform="translate(22.5000185, 22.5000185) ">
	<polygon fill="none" stroke="#000000" stroke-width="0.9" points="-4.5,-4.5 22.429,-4.5 22.429,4.004 49.358,4.004 49.358,-4.5 
		66.366,-4.5 66.366,4.004 83.374,4.004 83.374,-4.5 100.382,-4.5 100.382,4.004 117.39,4.004 117.39,-4.5 134.397,-4.5 
		134.397,4.004 151.406,4.004 151.406,-4.5 168.414,-4.5 168.414,4.004 185.421,4.004 185.421,-4.5 202.429,-4.5 202.429,4.004 
		219.437,4.004 219.437,-4.5 236.445,-4.5 236.445,4.004 253.453,4.004 253.453,-4.5 270.461,-4.5 270.461,4.004 287.469,4.004 
		287.469,-4.5 304.477,-4.5 304.477,4.004 321.484,4.004 321.484,-4.5 338.492,-4.5 338.492,4.004 365.421,4.004 365.421,-4.5 
		392.352,-4.5 392.352,19.595 383.847,19.595 383.847,43.689 392.352,43.689 392.352,60.697 383.847,60.697 383.847,84.792 
		392.352,84.792 392.352,108.886 365.421,108.886 365.421,100.382 338.492,100.382 338.492,108.886 321.484,108.886 
		321.484,100.382 304.477,100.382 304.477,108.886 287.469,108.886 287.469,100.382 270.461,100.382 270.461,108.886 
		253.453,108.886 253.453,100.382 236.445,100.382 236.445,108.886 219.437,108.886 219.437,100.382 202.429,100.382 
		202.429,108.886 185.421,108.886 185.421,100.382 168.414,100.382 168.414,108.886 151.406,108.886 151.406,100.382 
		134.397,100.382 134.397,108.886 117.39,108.886 117.39,100.382 100.382,100.382 100.382,108.886 83.374,108.886 83.374,100.382 
		66.366,100.382 66.366,108.886 49.358,108.886 49.358,100.382 22.429,100.382 22.429,108.886 -4.5,108.886 -4.5,84.792 
		4.004,84.792 4.004,60.697 -4.5,60.697 -4.5,43.689 4.004,43.689 4.004,19.595 -4.5,19.595 	"/>
</g>
<g transform="translate(518.5634185, 22.5000185) ">
	<polygon fill="none" stroke="#000000" stroke-width="0.9" points="-103.713,-4.5 -76.784,-4.5 -76.784,4.004 -49.854,4.004 
		-49.854,-4.5 -32.847,-4.5 -32.847,4.004 -15.839,4.004 -15.839,-4.5 1.169,-4.5 1.169,4.004 18.177,4.004 18.177,-4.5 
		35.185,-4.5 35.185,4.004 52.192,4.004 52.192,-4.5 69.2,-4.5 69.2,4.004 86.208,4.004 86.208,-4.5 103.216,-4.5 103.216,4.004 
		120.224,4.004 120.224,-4.5 137.232,-4.5 137.232,4.004 154.239,4.004 154.239,-4.5 171.248,-4.5 171.248,4.004 188.256,4.004 
		188.256,-4.5 205.264,-4.5 205.264,4.004 222.273,4.004 222.273,-4.5 239.279,-4.5 239.279,4.004 266.208,4.004 266.208,-4.5 
		293.138,-4.5 293.138,19.595 284.634,19.595 284.634,43.689 293.138,43.689 293.138,60.697 284.634,60.697 284.634,84.792 
		293.138,84.792 293.138,108.886 266.208,108.886 266.208,100.382 239.279,100.382 239.279,108.886 222.273,108.886 
		222.273,100.382 205.264,100.382 205.264,108.886 188.256,108.886 188.256,100.382 171.248,100.382 171.248,108.886 
		154.239,108.886 154.239,100.382 137.232,100.382 137.232,108.886 120.224,108.886 120.224,100.382 103.216,100.382 
		103.216,108.886 86.208,108.886 86.208,100.382 69.2,100.382 69.2,108.886 52.192,108.886 52.192,100.382 35.185,100.382 
		35.185,108.886 18.177,108.886 18.177,100.382 1.169,100.382 1.169,108.886 -15.839,108.886 -15.839,100.382 -32.847,100.382 
		-32.847,108.886 -49.854,108.886 -49.854,100.382 -76.784,100.382 -76.784,108.886 -103.713,108.886 -103.713,84.792 
		-95.209,84.792 -95.209,60.697 -103.713,60.697 -103.713,43.689 -95.209,43.689 -95.209,19.595 -103.713,19.595 	"/>
</g>
<g transform="translate(1014.6268185, 22.5000185) ">
	<polygon fill="none" stroke="#000000" stroke-width="0.9" points="-194.422,-4.5 -175.997,-4.5 -175.997,4.004 -149.068,4.004 
		-149.068,-4.5 -132.06,-4.5 -132.06,4.004 -115.052,4.004 -115.052,-4.5 -98.044,-4.5 -98.044,4.004 -81.036,4.004 -81.036,-4.5 
		-64.028,-4.5 -64.028,4.004 -47.02,4.004 -47.02,-4.5 -30.014,-4.5 -30.014,4.004 -13.005,4.004 -13.005,-4.5 4.003,-4.5 
		4.003,4.004 21.011,4.004 21.011,-4.5 38.019,-4.5 38.019,4.004 55.026,4.004 55.026,-4.5 72.034,-4.5 72.034,4.004 89.042,4.004 
		89.042,-4.5 106.05,-4.5 106.05,4.004 123.059,4.004 123.059,-4.5 140.067,-4.5 140.067,4.004 166.995,4.004 166.995,-4.5 
		185.42,-4.5 185.42,19.595 193.924,19.595 193.924,43.689 185.42,43.689 185.42,60.697 193.924,60.697 193.924,84.792 
		185.42,84.792 185.42,108.886 166.995,108.886 166.995,100.382 140.067,100.382 140.067,108.886 123.059,108.886 123.059,100.382 
		106.05,100.382 106.05,108.886 89.042,108.886 89.042,100.382 72.034,100.382 72.034,108.886 55.026,108.886 55.026,100.382 
		38.019,100.382 38.019,108.886 21.011,108.886 21.011,100.382 4.003,100.382 4.003,108.886 -13.005,108.886 -13.005,100.382 
		-30.014,100.382 -30.014,108.886 -47.02,108.886 -47.02,100.382 -64.028,100.382 -64.028,108.886 -81.036,108.886 -81.036,100.382 
		-98.044,100.382 -98.044,108.886 -115.052,108.886 -115.052,100.382 -132.06,100.382 -132.06,108.886 -149.068,108.886 
		-149.068,100.382 -175.997,100.382 -175.997,108.886 -194.422,108.886 -194.422,84.792 -202.926,84.792 -202.926,60.697 
		-194.422,60.697 -194.422,43.689 -202.926,43.689 -202.926,19.595 -194.422,19.595 	"/>
</g>
<g transform="translate(1014.6268185, 164.2324185) ">
	<polygon fill="none" stroke="#000000" stroke-width="0.9" points="-194.422,-32.847 -175.997,-32.847 -175.997,-24.343 
		-149.068,-24.343 -149.068,-32.847 -132.06,-32.847 -132.06,-24.343 -115.052,-24.343 -115.052,-32.847 -98.044,-32.847 
		-98.044,-24.343 -81.036,-24.343 -81.036,-32.847 -64.028,-32.847 -64.028,-24.343 -47.02,-24.343 -47.02,-32.847 -30.014,-32.847 
		-30.014,-24.343 -13.005,-24.343 -13.005,-32.847 4.003,-32.847 4.003,-24.343 21.011,-24.343 21.011,-32.847 38.019,-32.847 
		38.019,-24.343 55.026,-24.343 55.026,-32.847 72.034,-32.847 72.034,-24.343 89.042,-24.343 89.042,-32.847 106.05,-32.847 
		106.05,-24.343 123.059,-24.343 123.059,-32.847 140.067,-32.847 140.067,-24.343 166.995,-24.343 166.995,-32.847 185.42,-32.847 
		185.42,-8.752 193.924,-8.752 193.924,15.342 185.42,15.342 185.42,32.35 193.924,32.35 193.924,56.445 185.42,56.445 
		185.42,80.539 166.995,80.539 166.995,72.035 140.067,72.035 140.067,80.539 123.059,80.539 123.059,72.035 106.05,72.035 
		106.05,80.539 89.042,80.539 89.042,72.035 72.034,72.035 72.034,80.539 55.026,80.539 55.026,72.035 38.019,72.035 38.019,80.539 
		21.011,80.539 21.011,72.035 4.003,72.035 4.003,80.539 -13.005,80.539 -13.005,72.035 -30.014,72.035 -30.014,80.539 
		-47.02,80.539 -47.02,72.035 -64.028,72.035 -64.028,80.539 -81.036,80.539 -81.036,72.035 -98.044,72.035 -98.044,80.539 
		-115.052,80.539 -115.052,72.035 -132.06,72.035 -132.06,80.539 -149.068,80.539 -149.068,72.035 -175.997,72.035 -175.997,80.539 
		-194.422,80.539 -194.422,56.445 -202.926,56.445 -202.926,32.35 -194.422,32.35 -194.422,15.342 -202.926,15.342 -202.926,-8.752 
		-194.422,-8.752 	"/>
</g>
<g transform="translate(22.5000185, 164.2324185) ">
	<polygon fill="none" stroke="#000000" stroke-width="0.9" points="4.004,-24.343 22.429,-24.343 22.429,-32.847 49.358,-32.847 
		49.358,-24.343 66.366,-24.343 66.366,-32.847 83.374,-32.847 83.374,-24.343 100.382,-24.343 100.382,-32.847 117.39,-32.847 
		117.39,-24.343 134.397,-24.343 134.397,-32.847 151.406,-32.847 151.406,-24.343 168.414,-24.343 168.414,-32.847 
		185.421,-32.847 185.421,-24.343 202.429,-24.343 202.429,-32.847 219.437,-32.847 219.437,-24.343 236.445,-24.343 
		236.445,-32.847 253.453,-32.847 253.453,-24.343 270.461,-24.343 270.461,-32.847 287.469,-32.847 287.469,-24.343 
		304.477,-24.343 304.477,-32.847 321.484,-32.847 321.484,-24.343 338.492,-24.343 338.492,-32.847 365.421,-32.847 
		365.421,-24.343 383.847,-24.343 383.847,-5.917 392.352,-5.917 392.352,21.012 383.847,21.012 383.847,38.02 392.352,38.02 
		392.352,55.027 383.847,55.027 383.847,72.035 392.352,72.035 392.352,89.043 383.847,89.043 383.847,106.051 392.352,106.051 
		392.352,123.06 383.847,123.06 383.847,140.067 392.352,140.067 392.352,157.074 383.847,157.074 383.847,174.082 392.352,174.082 
		392.352,191.09 383.847,191.09 383.847,208.099 392.352,208.099 392.352,225.106 383.847,225.106 383.847,242.114 392.352,242.114 
		392.352,259.122 383.847,259.122 383.847,276.13 392.352,276.13 392.352,293.138 383.847,293.138 383.847,310.146 392.352,310.146 
		392.352,337.074 383.847,337.074 383.847,355.5 365.421,355.5 365.421,364.004 338.492,364.004 338.492,355.5 321.484,355.5 
		321.484,364.004 304.477,364.004 304.477,355.5 287.469,355.5 287.469,364.004 270.461,364.004 270.461,355.5 253.453,355.5 
		253.453,364.004 236.445,364.004 236.445,355.5 219.437,355.5 219.437,364.004 202.429,364.004 202.429,355.5 185.421,355.5 
		185.421,364.004 168.414,364.004 168.414,355.5 151.406,355.5 151.406,364.004 134.397,364.004 134.397,355.5 117.39,355.5 
		117.39,364.004 100.382,364.004 100.382,355.5 83.374,355.5 83.374,364.004 66.366,364.004 66.366,355.5 49.358,355.5 
		49.358,364.004 22.429,364.004 22.429,355.5 4.004,355.5 4.004,337.074 -4.5,337.074 -4.5,310.146 4.004,310.146 4.004,293.138 
		-4.5,293.138 -4.5,276.13 4.004,276.13 4.004,259.122 -4.5,259.122 -4.5,242.114 4.004,242.114 4.004,225.106 -4.5,225.106 
		-4.5,208.099 4.004,208.099 4.004,191.09 -4.5,191.09 -4.5,174.082 4.004,174.082 4.004,157.074 -4.5,157.074 -4.5,140.067 
		4.004,140.067 4.004,123.06 -4.5,123.06 -4.5,106.051 4.004,106.051 4.004,89.043 -4.5,89.043 -4.5,72.035 4.004,72.035 
		4.004,55.027 -4.5,55.027 -4.5,38.02 4.004,38.02 4.004,21.012 -4.5,21.012 -4.5,-5.917 4.004,-5.917 	"/>
</g>
<g transform="translate(518.5634185, 164.2324185) ">
	<polygon fill="none" stroke="#000000" stroke-width="0.9" points="-95.209,-24.343 -76.784,-24.343 -76.784,-32.847 
		-49.854,-32.847 -49.854,-24.343 -32.847,-24.343 -32.847,-32.847 -15.839,-32.847 -15.839,-24.343 1.169,-24.343 1.169,-32.847 
		18.177,-32.847 18.177,-24.343 35.185,-24.343 35.185,-32.847 52.192,-32.847 52.192,-24.343 69.2,-24.343 69.2,-32.847 
		86.208,-32.847 86.208,-24.343 103.216,-24.343 103.216,-32.847 120.224,-32.847 120.224,-24.343 137.232,-24.343 137.232,-32.847 
		154.239,-32.847 154.239,-24.343 171.248,-24.343 171.248,-32.847 188.256,-32.847 188.256,-24.343 205.264,-24.343 
		205.264,-32.847 222.273,-32.847 222.273,-24.343 239.279,-24.343 239.279,-32.847 266.208,-32.847 266.208,-24.343 
		284.634,-24.343 284.634,-5.917 293.138,-5.917 293.138,21.012 284.634,21.012 284.634,38.02 293.138,38.02 293.138,55.027 
		284.634,55.027 284.634,72.035 293.138,72.035 293.138,89.043 284.634,89.043 284.634,106.051 293.138,106.051 293.138,123.06 
		284.634,123.06 284.634,140.067 293.138,140.067 293.138,157.074 284.634,157.074 284.634,174.082 293.138,174.082 293.138,191.09 
		284.634,191.09 284.634,208.099 293.138,208.099 293.138,225.106 284.634,225.106 284.634,242.114 293.138,242.114 
		293.138,259.122 284.634,259.122 284.634,276.13 293.138,276.13 293.138,293.138 284.634,293.138 284.634,310.146 293.138,310.146 
		293.138,337.074 284.634,337.074 284.634,355.5 266.208,355.5 266.208,364.004 239.279,364.004 239.279,355.5 222.273,355.5 
		222.273,364.004 205.264,364.004 205.264,355.5 188.256,355.5 188.256,364.004 171.248,364.004 171.248,355.5 154.239,355.5 
		154.239,364.004 137.232,364.004 137.232,355.5 120.224,355.5 120.224,364.004 103.216,364.004 103.216,355.5 86.208,355.5 
		86.208,364.004 69.2,364.004 69.2,355.5 52.192,355.5 52.192,364.004 35.185,364.004 35.185,355.5 18.177,355.5 18.177,364.004 
		1.169,364.004 1.169,355.5 -15.839,355.5 -15.839,364.004 -32.847,364.004 -32.847,355.5 -49.854,355.5 -49.854,364.004 
		-76.784,364.004 -76.784,355.5 -95.209,355.5 -95.209,337.074 -103.713,337.074 -103.713,310.146 -95.209,310.146 -95.209,293.138 
		-103.713,293.138 -103.713,276.13 -95.209,276.13 -95.209,259.122 -103.713,259.122 -103.713,242.114 -95.209,242.114 
		-95.209,225.106 -103.713,225.106 -103.713,208.099 -95.209,208.099 -95.209,191.09 -103.713,191.09 -103.713,174.082 
		-95.209,174.082 -95.209,157.074 -103.713,157.074 -103.713,140.067 -95.209,140.067 -95.209,123.06 -103.713,123.06 
		-103.713,106.051 -95.209,106.051 -95.209,89.043 -103.713,89.043 -103.713,72.035 -95.209,72.035 -95.209,55.027 -103.713,55.027 
		-103.713,38.02 -95.209,38.02 -95.209,21.012 -103.713,21.012 -103.713,-5.917 -95.209,-5.917 	"/>
</g>
<circle fill="#FFFFFF" stroke="#1D1D1B" stroke-miterlimit="10" cx="216.426" cy="329.811" r="17.008"/>
<rect x="173.905" y="171.071" fill="#FFFFFF" stroke="#1D1D1B" stroke-miterlimit="10" width="85.04" height="8.504"/>
<rect x="40.116" y="402.801" transform="matrix(0.5 0.866 -0.866 0.5 393.8363 131.9614)" fill="#FFFFFF" stroke="#1D1D1B" stroke-miterlimit="10" width="85.04" height="8.504"/>
<rect x="307.695" y="402.801" transform="matrix(0.5 -0.866 0.866 0.5 -177.4106 506.8233)" fill="#FFFFFF" stroke="#1D1D1B" stroke-miterlimit="10" width="85.039" height="8.505"/>
<circle fill="#FFFFFF" stroke="#1D1D1B" stroke-miterlimit="10" cx="613.275" cy="74.692" r="17.008"/>
</svg>
